<svg width="34" height="32" viewBox="0 0 34 32" fill="none" xmlns="http://www.w3.org/2000/svg">
<path d="M7.78191 25.1165C7.50596 25.0614 7.2852 25.0062 7.00924 24.8958C6.73329 24.7854 6.51252 24.7302 6.29176 24.6198C5.79504 24.3991 5.35351 24.1231 4.91199 23.792C4.02893 23.1849 3.31145 22.357 2.75954 21.3636C2.20763 20.4253 1.87649 19.3215 1.8213 18.2729C1.76611 17.721 1.8213 17.2242 1.87649 16.6723C1.93168 16.3964 1.98687 16.1756 2.04206 15.8997C2.09725 15.6237 2.20763 15.4029 2.26283 15.127L2.31802 15.8997C2.31802 16.1756 2.37321 16.3964 2.4284 16.6723C2.48359 17.1691 2.59397 17.6658 2.70435 18.1073C2.92512 19.0455 3.25626 19.9286 3.75298 20.7565C4.2497 21.5843 4.80161 22.357 5.51909 23.0745C5.85023 23.4056 6.23657 23.7368 6.6229 24.0679C6.78848 24.2335 7.00924 24.3991 7.23 24.5646L7.78191 25.1165ZM7.61634 27.1034C7.45077 27.2138 7.23 27.269 7.00924 27.3242C6.78848 27.3794 6.6229 27.4346 6.40214 27.4346C6.01581 27.4898 5.57428 27.5449 5.13275 27.4897C4.30489 27.4346 3.42183 27.2138 2.70435 26.8275C1.93168 26.4411 1.26939 25.834 0.827863 25.1165C0.6071 24.7854 0.386336 24.3991 0.220764 24.0127C0.165573 23.8472 0.110382 23.6264 0.0551908 23.4056C0.0551908 23.2401 0 23.0745 0 22.8537C0.165573 23.0193 0.275954 23.1849 0.386336 23.2952C0.551909 23.4608 0.662291 23.6264 0.772672 23.7368C1.04863 24.0127 1.26939 24.2887 1.54534 24.5094C2.09725 25.0062 2.64916 25.4477 3.31145 25.7788C3.91855 26.11 4.63603 26.3859 5.29832 26.6067C5.62947 26.7171 6.01581 26.7723 6.40214 26.8827C6.56771 26.9378 6.78848 26.9378 6.95405 26.993C7.23 27.0482 7.39558 27.0482 7.61634 27.1034ZM20.0895 0.280647C20.3654 0.335838 20.5862 0.446219 20.8622 0.556601C21.1381 0.666983 21.3589 0.777365 21.5796 0.887746C22.0763 1.1637 22.5179 1.43966 22.9594 1.7708C23.8425 2.43309 24.5599 3.31615 25.0567 4.30958C25.5534 5.30302 25.8293 6.40683 25.8293 7.45546C25.8293 8.00737 25.7741 8.50409 25.6638 9.056C25.6086 9.33195 25.5534 9.55271 25.443 9.82867C25.3326 10.1046 25.2774 10.3254 25.167 10.5462L25.1118 9.77348C25.1118 9.49752 25.1118 9.27676 25.0567 9.0008L24.8911 7.51065C24.7255 6.57241 24.3944 5.63416 23.9528 4.75111C23.5113 3.86805 22.9594 3.09538 22.2971 2.3779C21.966 1.99156 21.5796 1.66042 21.2485 1.27408C21.0829 1.10851 20.8622 0.942937 20.6414 0.777365L20.0895 0.280647ZM24.8911 0.0598831C25.1118 0.115074 25.2774 0.170265 25.443 0.280647C25.6086 0.335838 25.8293 0.446219 25.9949 0.556601C26.326 0.777365 26.6572 0.998128 26.9883 1.27408C27.5954 1.82599 28.0922 2.48828 28.3681 3.26095C28.6993 4.03363 28.8096 4.86149 28.6993 5.68935C28.6441 6.07569 28.5337 6.46202 28.4233 6.84836C28.3681 7.01393 28.2577 7.2347 28.2025 7.40027C28.0922 7.56584 28.037 7.73141 27.8714 7.89699V7.34508V6.79317C27.8714 6.40683 27.8162 6.07569 27.8162 5.74454C27.7058 5.02706 27.5954 4.36477 27.3195 3.75767C27.0435 3.09538 26.7124 2.54347 26.326 1.93637C26.1053 1.66042 25.8845 1.32927 25.6638 1.05332C25.5534 0.887746 25.443 0.777365 25.2774 0.611792C25.167 0.335838 25.0015 0.170265 24.8911 0.0598831Z" fill="#42ADE2"/>
<path d="M4.41557 8.28334C3.31175 8.78006 2.92541 10.1046 3.42213 11.2085L10.3762 25.7237L14.2395 23.9024L7.28549 9.33196C6.78877 8.22815 5.51938 7.73143 4.41557 8.28334ZM22.6837 19.8182L26.7679 17.8866L18.8204 1.32929C18.2685 0.225469 16.9439 -0.271249 15.7849 0.28066C14.6811 0.832569 14.1844 2.15715 14.7363 3.31616L22.6837 19.8182Z" fill="#FFDD67"/>
<path d="M15.8394 0.225467C15.7291 0.280658 15.6187 0.335849 15.5083 0.446231C16.5569 0.170276 17.6607 0.666994 18.1575 1.66043L26.1049 18.2177L26.8224 17.8865L18.8749 1.32928C18.323 0.170277 16.9985 -0.326441 15.8394 0.225467Z" fill="#EBA352"/>
<path d="M14.2392 23.8472L18.4889 21.8051L10.3758 4.9167C9.82389 3.75769 8.38893 3.20578 7.22992 3.75769C6.07091 4.3096 5.57419 5.74456 6.1261 6.90357L14.2392 23.8472Z" fill="#FFDD67"/>
<path d="M7.23007 3.81287C7.11969 3.86806 7.00931 3.92326 6.89893 4.03364C7.94755 3.75768 9.16175 4.2544 9.65847 5.30303L14.6808 15.8445L15.895 16.562L10.376 4.97188C9.82404 3.75768 8.44427 3.26097 7.23007 3.81287Z" fill="#EBA352"/>
<path d="M17.8266 20.4805L22.0763 18.4384L13.9632 1.55004C13.4113 0.39103 11.9763 -0.160879 10.8173 0.446221C9.65831 0.99813 9.1616 2.43309 9.7135 3.5921L17.8266 20.4805Z" fill="#FFDD67"/>
<path d="M10.8173 0.391037C10.7069 0.446228 10.5965 0.55661 10.4861 0.611801C11.5348 0.335846 12.749 0.832564 13.2457 1.88119L18.9303 13.8024L20.1445 14.5199L13.9632 1.55005C13.4112 0.335846 11.9763 -0.160872 10.8173 0.391037ZM4.41513 8.28333C4.30475 8.33852 4.19437 8.39371 4.08398 8.5041C5.07742 8.22814 6.12605 8.72486 6.56757 9.7183L10.7069 18.3833L11.9211 19.1007L7.28506 9.38715C6.78834 8.22814 5.51895 7.73142 4.41513 8.28333Z" fill="#EBA352"/>
<path d="M32.4522 6.62761C30.962 5.4686 28.5336 6.73799 27.3194 10.7117C26.4916 13.4713 26.3812 14.2991 24.6151 15.127L23.6217 13.0849C23.6217 13.0849 7.94745 20.6461 8.55454 21.8603C8.55454 21.8603 10.431 27.7105 13.6321 30.4149C18.3785 34.499 29.4719 30.1389 29.9686 19.5975C30.2446 13.4713 34.0527 7.897 32.4522 6.62761Z" fill="#FFDD67"/>
<path d="M32.4525 6.62762C32.1765 6.40685 31.8454 6.29647 31.5142 6.24128C31.5694 6.29647 31.6798 6.29647 31.735 6.35166C33.3907 7.62105 31.6798 10.5462 30.7416 13.1953C29.9689 15.2926 29.3066 17.445 29.417 19.5423C29.8585 28.704 20.6416 33.0641 15.1226 31.4083C20.5313 33.6712 30.576 29.3663 30.1345 19.8182C30.0241 17.721 30.6312 15.6789 31.4591 13.4713C32.3421 10.8221 34.053 7.89701 32.4525 6.62762Z" fill="#EBA352"/>
<path d="M25.1122 14.9063C21.6904 15.2926 16.668 20.2046 20.2002 25.5581C17.6063 20.1494 21.856 16.5068 24.5603 15.2374C24.8363 15.0166 25.1122 14.9063 25.1122 14.9063Z" fill="#EBA352"/>
</svg>
