<svg width="241" height="100" viewBox="0 0 241 100" fill="none" xmlns="http://www.w3.org/2000/svg">
<path d="M35.2659 40.8927C36.1875 39.9328 36.7826 38.3777 37.0514 36.2275C37.3586 34.0773 37.5121 31.6199 37.5121 28.8553V13.1893C37.5121 10.4248 37.3586 7.96736 37.0514 5.81713C36.7826 3.66691 36.1875 2.11183 35.2659 1.15191V0.86393H50.8167C54.1188 0.86393 56.9602 1.2095 59.3408 1.90065C61.7598 2.59179 63.7372 3.55172 65.2731 4.78042C66.809 6.00912 67.9417 7.4874 68.6712 9.21526C69.4008 10.9047 69.7656 12.7478 69.7656 14.7444C69.7656 17.8546 69.1128 20.3888 67.8073 22.347C66.5402 24.2669 64.87 25.7835 62.7965 26.897C60.7231 27.9722 58.3809 28.7401 55.7699 29.2009C53.1589 29.6232 50.5287 29.892 47.8793 30.0072C47.9177 32.5414 48.0713 34.7684 48.3401 36.6883C48.6473 38.6081 49.2424 40.0096 50.1255 40.8927V41.1807H35.2659V40.8927ZM47.8793 22.4046C49.3 22.2894 50.6823 22.1166 52.0262 21.8862C53.3701 21.6175 54.5604 21.2143 55.5971 20.6767C56.6338 20.1392 57.4594 19.4288 58.0737 18.5457C58.688 17.6626 58.9952 16.5491 58.9952 15.2052C58.9952 13.2853 58.2081 11.8455 56.6338 10.8855C55.0595 9.88721 52.8325 9.38805 49.9528 9.38805H47.8793V22.4046Z" fill="#B42318"/>
<path d="M88.0912 0.86393V1.15191C87.1697 2.11183 86.5554 3.66691 86.2482 5.81713C85.9794 7.96736 85.845 10.4248 85.845 13.1893V28.8553C85.845 31.6199 85.9794 34.0773 86.2482 36.2275C86.5554 38.3777 87.1697 39.9328 88.0912 40.8927V41.1807H73.2316V40.8927C74.1532 39.9328 74.7483 38.3777 75.0171 36.2275C75.3243 34.0773 75.4779 31.6199 75.4779 28.8553V13.1893C75.4779 10.4248 75.3243 7.96736 75.0171 5.81713C74.7483 3.66691 74.1532 2.11183 73.2316 1.15191V0.86393H88.0912Z" fill="#B42318"/>
<path d="M106.875 32.3686H115.917C117.645 32.3686 119.104 32.1574 120.294 31.7351C121.485 31.3127 122.636 30.6215 123.75 29.6616L124.038 29.7768L121.965 41.9294L121.677 42.0446C121.177 41.8143 120.505 41.6415 119.661 41.5263C118.854 41.4111 117.914 41.3151 116.839 41.2383C115.802 41.1999 114.669 41.1807 113.44 41.1807C112.25 41.1807 111.041 41.1807 109.812 41.1807H90.863L90.8054 41.0079L106.759 9.67602H105.319C104.052 9.67602 102.843 9.69522 101.691 9.73362C100.577 9.77202 99.5215 9.88721 98.5232 10.0792C97.5249 10.2328 96.565 10.5016 95.6434 10.8855C94.7603 11.2311 93.8964 11.7495 93.0516 12.4406L92.7637 12.383L94.7219 0.86393L94.8371 0.115189L95.1251 0C95.6242 0.230381 96.277 0.403167 97.0833 0.518359C97.9281 0.63355 98.8688 0.729542 99.9055 0.806335C100.981 0.844732 102.113 0.86393 103.304 0.86393C104.532 0.86393 105.761 0.86393 106.99 0.86393H122.713L122.771 1.15191L106.875 32.3686Z" fill="#B42318"/>
<path d="M142.14 32.3686H151.183C152.911 32.3686 154.37 32.1574 155.56 31.7351C156.751 31.3127 157.902 30.6215 159.016 29.6616L159.304 29.7768L157.23 41.9294L156.942 42.0446C156.443 41.8143 155.771 41.6415 154.927 41.5263C154.12 41.4111 153.18 41.3151 152.104 41.2383C151.068 41.1999 149.935 41.1807 148.706 41.1807C147.516 41.1807 146.307 41.1807 145.078 41.1807H126.129L126.071 41.0079L142.025 9.67602H140.585C139.318 9.67602 138.109 9.69522 136.957 9.73362C135.843 9.77202 134.787 9.88721 133.789 10.0792C132.791 10.2328 131.831 10.5016 130.909 10.8855C130.026 11.2311 129.162 11.7495 128.318 12.4406L128.03 12.383L129.988 0.86393L130.103 0.115189L130.391 0C130.89 0.230381 131.543 0.403167 132.349 0.518359C133.194 0.63355 134.135 0.729542 135.171 0.806335C136.247 0.844732 137.379 0.86393 138.57 0.86393C139.798 0.86393 141.027 0.86393 142.256 0.86393H157.979L158.037 1.15191L142.14 32.3686Z" fill="#B42318"/>
<path d="M183.799 14.9748L179.307 26.4939L187.946 25.3996L183.799 14.9748ZM176.139 34.3844C175.832 35.2676 175.602 36.0163 175.448 36.6307C175.333 37.245 175.275 37.8018 175.275 38.3009C175.275 38.9921 175.352 39.5488 175.506 39.9712C175.698 40.3552 175.89 40.6623 176.082 40.8927V41.1807H160.934V40.8927C162.163 39.5488 163.238 37.8978 164.159 35.9395C165.119 33.9813 165.926 32.1382 166.578 30.4104L175.909 6.79626C176.293 5.79794 176.523 5.06839 176.6 4.60763C176.715 4.10847 176.773 3.7821 176.773 3.62851C176.773 2.97576 176.677 2.4574 176.485 2.07343C176.331 1.68947 176.158 1.38229 175.967 1.15191V0.86393H189.444L201.078 30.4104C201.731 32.1382 202.518 33.9813 203.44 35.9395C204.399 37.8978 205.494 39.5488 206.722 40.8927V41.1807H191.575V40.8927C191.767 40.6623 191.94 40.3552 192.093 39.9712C192.285 39.5488 192.381 38.9921 192.381 38.3009C192.381 37.8018 192.304 37.245 192.151 36.6307C192.036 35.9779 191.805 35.2292 191.46 34.3844L190.711 32.4838L176.197 34.2693L176.139 34.3844Z" fill="#B42318"/>
<path d="M0 98.8481C0.921526 97.8882 1.51668 96.3331 1.78546 94.1829C2.09263 92.0326 2.24622 89.5752 2.24622 86.8106V71.1447C2.24622 68.3801 2.09263 65.9227 1.78546 63.7725C1.51668 61.6223 0.921526 60.0672 0 59.1073V58.8193H15.5508C18.8529 58.8193 21.6943 59.1649 24.0749 59.856C26.4939 60.5471 28.4713 61.5071 30.0072 62.7358C31.5431 63.9645 32.6758 65.4428 33.4053 67.1706C34.1349 68.8601 34.4996 70.7031 34.4996 72.6998C34.4996 75.8099 33.8469 78.3441 32.5414 80.3024C31.2743 82.2222 29.604 83.7389 27.5306 84.8524C25.4572 85.9275 23.115 86.6955 20.504 87.1562C17.893 87.5786 15.2628 87.8474 12.6134 87.9626C12.6518 90.4967 12.8054 92.7238 13.0742 94.6436C13.3813 96.5635 13.9765 97.965 14.8596 98.8481V99.1361H0V98.8481ZM12.6134 80.36C14.0341 80.2448 15.4164 80.072 16.7603 79.8416C18.1042 79.5728 19.2945 79.1697 20.3312 78.6321C21.3679 78.0945 22.1934 77.3842 22.8078 76.5011C23.4221 75.6179 23.7293 74.5044 23.7293 73.1605C23.7293 71.2407 22.9422 69.8008 21.3679 68.8409C19.7936 67.8426 17.5666 67.3434 14.6868 67.3434H12.6134V80.36Z" fill="#B42318"/>
<path d="M52.8253 58.8193V59.1073C51.9038 60.0672 51.2894 61.6223 50.9823 63.7725C50.7135 65.9227 50.5791 68.3801 50.5791 71.1447V86.8106C50.5791 89.5752 50.7135 92.0326 50.9823 94.1829C51.2894 96.3331 51.9038 97.8882 52.8253 98.8481V99.1361H37.9657V98.8481C38.8872 97.8882 39.4824 96.3331 39.7512 94.1829C40.0583 92.0326 40.2119 89.5752 40.2119 86.8106V71.1447C40.2119 68.3801 40.0583 65.9227 39.7512 63.7725C39.4824 61.6223 38.8872 60.0672 37.9657 59.1073V58.8193H52.8253Z" fill="#B42318"/>
<path d="M71.6086 90.324H80.6511C82.379 90.324 83.838 90.1128 85.0283 89.6904C86.2186 89.2681 87.3706 88.5769 88.4841 87.617L88.772 87.7322L86.6986 99.8848L86.4106 100C85.9115 99.7696 85.2395 99.5968 84.3948 99.4816C83.5885 99.3664 82.6477 99.2705 81.5726 99.1937C80.5359 99.1553 79.4032 99.1361 78.1745 99.1361C76.9842 99.1361 75.7747 99.1361 74.546 99.1361H55.5971L55.5395 98.9633L71.4934 67.6314H70.0535C68.7864 67.6314 67.5769 67.6506 66.425 67.689C65.3115 67.7274 64.2556 67.8426 63.2573 68.0346C62.259 68.1881 61.299 68.4569 60.3775 68.8409C59.4944 69.1865 58.6305 69.7048 57.7857 70.396L57.4977 70.3384L59.456 58.8193L59.5712 58.0705L59.8592 57.9554C60.3583 58.1857 61.0111 58.3585 61.8174 58.4737C62.6621 58.5889 63.6029 58.6849 64.6396 58.7617C65.7147 58.8001 66.8474 58.8193 68.0377 58.8193C69.2664 58.8193 70.4951 58.8193 71.7238 58.8193H87.4473L87.5049 59.1073L71.6086 90.324Z" fill="#B42318"/>
<path d="M106.875 90.324H115.917C117.645 90.324 119.104 90.1128 120.294 89.6904C121.485 89.2681 122.636 88.5769 123.75 87.617L124.038 87.7322L121.965 99.8848L121.677 100C121.177 99.7696 120.505 99.5968 119.661 99.4816C118.854 99.3664 117.914 99.2705 116.839 99.1937C115.802 99.1553 114.669 99.1361 113.44 99.1361C112.25 99.1361 111.041 99.1361 109.812 99.1361H90.863L90.8054 98.9633L106.759 67.6314H105.319C104.052 67.6314 102.843 67.6506 101.691 67.689C100.577 67.7274 99.5215 67.8426 98.5232 68.0346C97.5249 68.1881 96.565 68.4569 95.6434 68.8409C94.7603 69.1865 93.8964 69.7048 93.0516 70.396L92.7637 70.3384L94.7219 58.8193L94.8371 58.0705L95.1251 57.9554C95.6242 58.1857 96.277 58.3585 97.0833 58.4737C97.9281 58.5889 98.8688 58.6849 99.9055 58.7617C100.981 58.8001 102.113 58.8193 103.304 58.8193C104.532 58.8193 105.761 58.8193 106.99 58.8193H122.713L122.771 59.1073L106.875 90.324Z" fill="#B42318"/>
<path d="M148.534 72.9302L144.041 84.4492L152.68 83.3549L148.534 72.9302ZM140.873 92.3398C140.566 93.2229 140.336 93.9717 140.182 94.586C140.067 95.2004 140.009 95.7571 140.009 96.2563C140.009 96.9474 140.086 97.5042 140.24 97.9266C140.432 98.3105 140.624 98.6177 140.816 98.8481V99.1361H125.668V98.8481C126.897 97.5042 127.972 95.8531 128.894 93.8949C129.853 91.9366 130.66 90.0936 131.313 88.3657L140.643 64.7516C141.027 63.7533 141.257 63.0238 141.334 62.563C141.449 62.0638 141.507 61.7375 141.507 61.5839C141.507 60.9311 141.411 60.4128 141.219 60.0288C141.065 59.6448 140.893 59.3377 140.701 59.1073V58.8193H154.178L165.812 88.3657C166.465 90.0936 167.252 91.9366 168.174 93.8949C169.133 95.8531 170.228 97.5042 171.457 98.8481V99.1361H156.309V98.8481C156.501 98.6177 156.674 98.3105 156.827 97.9266C157.019 97.5042 157.115 96.9474 157.115 96.2563C157.115 95.7571 157.038 95.2004 156.885 94.586C156.77 93.9333 156.539 93.1845 156.194 92.3398L155.445 90.4392L140.931 92.2246L140.873 92.3398Z" fill="#B42318"/>
<path d="M188.487 90.324H197.529C199.257 90.324 200.716 90.1128 201.906 89.6904C203.097 89.2681 204.249 88.5769 205.362 87.617L205.65 87.7322L203.577 99.8848L203.289 100C202.79 99.7696 202.118 99.5968 201.273 99.4816C200.467 99.3664 199.526 99.2705 198.451 99.1937C197.414 99.1553 196.281 99.1361 195.053 99.1361C193.862 99.1361 192.653 99.1361 191.424 99.1361H172.475L172.418 98.9633L188.372 67.6314H186.932C185.665 67.6314 184.455 67.6506 183.303 67.689C182.19 67.7274 181.134 67.8426 180.135 68.0346C179.137 68.1881 178.177 68.4569 177.256 68.8409C176.373 69.1865 175.509 69.7048 174.664 70.396L174.376 70.3384L176.334 58.8193L176.449 58.0705L176.737 57.9554C177.236 58.1857 177.889 58.3585 178.696 58.4737C179.54 58.5889 180.481 58.6849 181.518 58.7617C182.593 58.8001 183.726 58.8193 184.916 58.8193C186.145 58.8193 187.373 58.8193 188.602 58.8193H204.325L204.383 59.1073L188.487 90.324Z" fill="#B42318"/>
<path d="M223.753 90.324H232.795C234.523 90.324 235.982 90.1128 237.172 89.6904C238.363 89.2681 239.515 88.5769 240.628 87.617L240.916 87.7322L238.843 99.8848L238.555 100C238.056 99.7696 237.384 99.5968 236.539 99.4816C235.733 99.3664 234.792 99.2705 233.717 99.1937C232.68 99.1553 231.547 99.1361 230.319 99.1361C229.128 99.1361 227.919 99.1361 226.69 99.1361H207.741L207.684 98.9633L223.637 67.6314H222.198C220.93 67.6314 219.721 67.6506 218.569 67.689C217.456 67.7274 216.4 67.8426 215.401 68.0346C214.403 68.1881 213.443 68.4569 212.522 68.8409C211.638 69.1865 210.775 69.7048 209.93 70.396L209.642 70.3384L211.6 58.8193L211.715 58.0705L212.003 57.9554C212.502 58.1857 213.155 58.3585 213.961 58.4737C214.806 58.5889 215.747 58.6849 216.784 58.7617C217.859 58.8001 218.991 58.8193 220.182 58.8193C221.41 58.8193 222.639 58.8193 223.868 58.8193H239.591L239.649 59.1073L223.753 90.324Z" fill="#B42318"/>
</svg>
