<svg width="80" height="33" viewBox="0 0 80 33" fill="none" xmlns="http://www.w3.org/2000/svg">
<path d="M11.7106 13.4946C12.0166 13.1778 12.2142 12.6647 12.3035 11.9551C12.4055 11.2455 12.4565 10.4346 12.4565 9.52225V4.35248C12.4565 3.44017 12.4055 2.62923 12.3035 1.91965C12.2142 1.21008 12.0166 0.696904 11.7106 0.380129V0.285097H16.8745C17.971 0.285097 18.9145 0.399136 19.705 0.627214C20.5083 0.855291 21.165 1.17207 21.675 1.57754C22.185 1.98301 22.5611 2.47084 22.8034 3.04104C23.0456 3.59856 23.1668 4.20677 23.1668 4.86566C23.1668 5.89201 22.95 6.72829 22.5165 7.37451C22.0957 8.00806 21.5411 8.50857 20.8526 8.87603C20.1641 9.23081 19.3863 9.48423 18.5193 9.63628C17.6523 9.77567 16.7789 9.86436 15.8991 9.90238C15.9118 10.7387 15.9628 11.4736 16.0521 12.1071C16.1541 12.7407 16.3517 13.2032 16.645 13.4946V13.5896H11.7106V13.4946ZM15.8991 7.39352C16.3708 7.35551 16.8299 7.29849 17.2761 7.22246C17.7224 7.13377 18.1176 7.00072 18.4619 6.82333C18.8062 6.64593 19.0803 6.41152 19.2843 6.12009C19.4883 5.82865 19.5903 5.46119 19.5903 5.01771C19.5903 4.38416 19.3289 3.909 18.8062 3.59222C18.2834 3.26278 17.5439 3.09806 16.5876 3.09806H15.8991V7.39352Z" fill="#B42318"/>
<path d="M29.2521 0.285097V0.380129C28.9461 0.696904 28.7421 1.21008 28.6401 1.91965C28.5508 2.62923 28.5062 3.44017 28.5062 4.35248V9.52225C28.5062 10.4346 28.5508 11.2455 28.6401 11.9551C28.7421 12.6647 28.9461 13.1778 29.2521 13.4946V13.5896H24.3177V13.4946C24.6237 13.1778 24.8214 12.6647 24.9106 11.9551C25.0126 11.2455 25.0636 10.4346 25.0636 9.52225V4.35248C25.0636 3.44017 25.0126 2.62923 24.9106 1.91965C24.8214 1.21008 24.6237 0.696904 24.3177 0.380129V0.285097H29.2521Z" fill="#B42318"/>
<path d="M35.4894 10.6816H38.4921C39.0658 10.6816 39.5504 10.612 39.9456 10.4726C40.3409 10.3332 40.7234 10.1051 41.0931 9.78834L41.1888 9.82635L40.5002 13.8367L40.4046 13.8747C40.2389 13.7987 40.0157 13.7417 39.7352 13.7037C39.4675 13.6657 39.1551 13.634 38.7981 13.6086C38.4538 13.596 38.0777 13.5896 37.6697 13.5896C37.2744 13.5896 36.8728 13.5896 36.4648 13.5896H30.1725L30.1534 13.5326L35.4511 3.19309H34.973C34.5522 3.19309 34.1506 3.19942 33.7681 3.2121C33.3983 3.22477 33.0477 3.26278 32.7162 3.32613C32.3847 3.37682 32.0659 3.46551 31.7599 3.59222C31.4667 3.70626 31.1798 3.87732 30.8993 4.1054L30.8036 4.08639L31.4539 0.285097L31.4922 0.0380125L31.5878 0C31.7535 0.0760257 31.9703 0.133045 32.2381 0.171058C32.5186 0.209072 32.8309 0.240749 33.1752 0.266091C33.5322 0.278762 33.9083 0.285097 34.3036 0.285097C34.7116 0.285097 35.1196 0.285097 35.5276 0.285097H40.7489L40.768 0.380129L35.4894 10.6816Z" fill="#B42318"/>
<path d="M47.2 10.6816H50.2027C50.7765 10.6816 51.261 10.612 51.6562 10.4726C52.0515 10.3332 52.434 10.1051 52.8037 9.78834L52.8994 9.82635L52.2109 13.8367L52.1152 13.8747C51.9495 13.7987 51.7263 13.7417 51.4458 13.7037C51.1781 13.6657 50.8657 13.634 50.5087 13.6086C50.1644 13.596 49.7883 13.5896 49.3803 13.5896C48.985 13.5896 48.5834 13.5896 48.1754 13.5896H41.8831L41.864 13.5326L47.1617 3.19309H46.6836C46.2628 3.19309 45.8612 3.19942 45.4787 3.2121C45.1089 3.22477 44.7583 3.26278 44.4268 3.32613C44.0953 3.37682 43.7765 3.46551 43.4705 3.59222C43.1773 3.70626 42.8904 3.87732 42.6099 4.1054L42.5143 4.08639L43.1645 0.285097L43.2028 0.0380125L43.2984 0C43.4641 0.0760257 43.6809 0.133045 43.9487 0.171058C44.2292 0.209072 44.5415 0.240749 44.8858 0.266091C45.2428 0.278762 45.6189 0.285097 46.0142 0.285097C46.4222 0.285097 46.8302 0.285097 47.2382 0.285097H52.4595L52.4786 0.380129L47.2 10.6816Z" fill="#B42318"/>
<path d="M61.0335 4.94168L59.5417 8.74298L62.4106 8.38186L61.0335 4.94168ZM58.4898 11.3469C58.3878 11.6383 58.3113 11.8854 58.2603 12.0881C58.2221 12.2909 58.203 12.4746 58.203 12.6393C58.203 12.8674 58.2285 13.0511 58.2795 13.1905C58.3432 13.3172 58.407 13.4186 58.4707 13.4946V13.5896H53.4407V13.4946C53.8487 13.0511 54.2057 12.5063 54.5117 11.86C54.8305 11.2138 55.0983 10.6056 55.315 10.0354L58.4133 2.24277C58.5408 1.91332 58.6173 1.67257 58.6428 1.52052C58.6811 1.3558 58.7002 1.24809 58.7002 1.19741C58.7002 0.982002 58.6683 0.810943 58.6046 0.684233C58.5536 0.557524 58.4962 0.456156 58.4325 0.380129V0.285097H62.9078L66.7712 10.0354C66.9879 10.6056 67.2493 11.2138 67.5553 11.86C67.8741 12.5063 68.2374 13.0511 68.6455 13.4946V13.5896H63.6155V13.4946C63.6792 13.4186 63.7366 13.3172 63.7876 13.1905C63.8513 13.0511 63.8832 12.8674 63.8832 12.6393C63.8832 12.4746 63.8577 12.2909 63.8067 12.0881C63.7685 11.8727 63.692 11.6256 63.5772 11.3469L63.3286 10.7197L58.509 11.3089L58.4898 11.3469Z" fill="#B42318"/>
<path d="M0 32.6199C0.306007 32.3031 0.503637 31.7899 0.592889 31.0803C0.694892 30.3708 0.745893 29.5598 0.745893 28.6475V23.4778C0.745893 22.5654 0.694892 21.7545 0.592889 21.0449C0.503637 20.3353 0.306007 19.8222 0 19.5054V19.4104H5.16387C6.2604 19.4104 7.20392 19.5244 7.99444 19.7525C8.79771 19.9806 9.45435 20.2973 9.96437 20.7028C10.4744 21.1083 10.8505 21.5961 11.0928 22.1663C11.335 22.7238 11.4562 23.332 11.4562 23.9909C11.4562 25.0173 11.2394 25.8536 10.8059 26.4998C10.3851 27.1333 9.83049 27.6338 9.14197 28.0013C8.45345 28.3561 7.67568 28.6095 6.80866 28.7616C5.94164 28.9009 5.06825 28.9896 4.18848 29.0276C4.20123 29.8639 4.25223 30.5988 4.34148 31.2324C4.44348 31.8659 4.64111 32.3284 4.93437 32.6199V32.7149H0V32.6199ZM4.18848 26.5188C4.66024 26.4808 5.11925 26.4238 5.56551 26.3477C6.01177 26.259 6.40703 26.126 6.75129 25.9486C7.09555 25.7712 7.36968 25.5368 7.57368 25.2454C7.77769 24.9539 7.87969 24.5865 7.87969 24.143C7.87969 23.5094 7.61831 23.0343 7.09555 22.7175C6.57278 22.388 5.83326 22.2233 4.87699 22.2233H4.18848V26.5188Z" fill="#B42318"/>
<path d="M17.5415 19.4104V19.5054C17.2355 19.8222 17.0315 20.3353 16.9295 21.0449C16.8402 21.7545 16.7956 22.5654 16.7956 23.4778V28.6475C16.7956 29.5598 16.8402 30.3708 16.9295 31.0803C17.0315 31.7899 17.2355 32.3031 17.5415 32.6199V32.7149H12.6071V32.6199C12.9131 32.3031 13.1108 31.7899 13.2 31.0803C13.302 30.3708 13.353 29.5598 13.353 28.6475V23.4778C13.353 22.5654 13.302 21.7545 13.2 21.0449C13.1108 20.3353 12.9131 19.8222 12.6071 19.5054V19.4104H17.5415Z" fill="#B42318"/>
<path d="M23.7788 29.8069H26.7815C27.3552 29.8069 27.8397 29.7372 28.235 29.5978C28.6303 29.4585 29.0128 29.2304 29.3825 28.9136L29.4782 28.9516L28.7896 32.962L28.694 33C28.5283 32.924 28.3051 32.867 28.0246 32.8289C27.7569 32.7909 27.4445 32.7593 27.0875 32.7339C26.7432 32.7212 26.3671 32.7149 25.9591 32.7149C25.5638 32.7149 25.1622 32.7149 24.7542 32.7149H18.4619L18.4428 32.6579L23.7405 22.3184H23.2624C22.8416 22.3184 22.44 22.3247 22.0575 22.3374C21.6877 22.35 21.3371 22.388 21.0056 22.4514C20.6741 22.5021 20.3553 22.5908 20.0493 22.7175C19.7561 22.8315 19.4692 23.0026 19.1887 23.2307L19.093 23.2117L19.7433 19.4104L19.7816 19.1633L19.8772 19.1253C20.0429 19.2013 20.2597 19.2583 20.5274 19.2963C20.8079 19.3343 21.1203 19.366 21.4646 19.3914C21.8216 19.404 22.1977 19.4104 22.593 19.4104C23.001 19.4104 23.409 19.4104 23.817 19.4104H29.0383L29.0574 19.5054L23.7788 29.8069Z" fill="#B42318"/>
<path d="M35.4894 29.8069H38.4921C39.0658 29.8069 39.5504 29.7372 39.9456 29.5978C40.3409 29.4585 40.7234 29.2304 41.0931 28.9136L41.1888 28.9516L40.5002 32.962L40.4046 33C40.2389 32.924 40.0157 32.867 39.7352 32.8289C39.4675 32.7909 39.1551 32.7593 38.7981 32.7339C38.4538 32.7212 38.0777 32.7149 37.6697 32.7149C37.2744 32.7149 36.8728 32.7149 36.4648 32.7149H30.1725L30.1534 32.6579L35.4511 22.3184H34.973C34.5522 22.3184 34.1506 22.3247 33.7681 22.3374C33.3983 22.35 33.0477 22.388 32.7162 22.4514C32.3847 22.5021 32.0659 22.5908 31.7599 22.7175C31.4667 22.8315 31.1798 23.0026 30.8993 23.2307L30.8036 23.2117L31.4539 19.4104L31.4922 19.1633L31.5878 19.1253C31.7535 19.2013 31.9703 19.2583 32.2381 19.2963C32.5186 19.3343 32.8309 19.366 33.1752 19.3914C33.5322 19.404 33.9083 19.4104 34.3036 19.4104C34.7116 19.4104 35.1196 19.4104 35.5276 19.4104H40.7489L40.768 19.5054L35.4894 29.8069Z" fill="#B42318"/>
<path d="M49.3229 24.067L47.8311 27.8682L50.6999 27.5071L49.3229 24.067ZM46.7792 30.4721C46.6772 30.7636 46.6007 31.0107 46.5497 31.2134C46.5115 31.4161 46.4923 31.5999 46.4923 31.7646C46.4923 31.9927 46.5178 32.1764 46.5688 32.3158C46.6326 32.4425 46.6964 32.5438 46.7601 32.6199V32.7149H41.7301V32.6199C42.1381 32.1764 42.4951 31.6315 42.8011 30.9853C43.1199 30.3391 43.3876 29.7309 43.6044 29.1607L46.7027 21.368C46.8302 21.0386 46.9067 20.7978 46.9322 20.6458C46.9705 20.4811 46.9896 20.3734 46.9896 20.3227C46.9896 20.1073 46.9577 19.9362 46.894 19.8095C46.843 19.6828 46.7856 19.5814 46.7218 19.5054V19.4104H51.1972L55.0606 29.1607C55.2773 29.7309 55.5387 30.3391 55.8447 30.9853C56.1635 31.6315 56.5268 32.1764 56.9348 32.6199V32.7149H51.9049V32.6199C51.9686 32.5438 52.026 32.4425 52.077 32.3158C52.1407 32.1764 52.1726 31.9927 52.1726 31.7646C52.1726 31.5999 52.1471 31.4161 52.0961 31.2134C52.0579 30.998 51.9813 30.7509 51.8666 30.4721L51.618 29.8449L46.7984 30.4341L46.7792 30.4721Z" fill="#B42318"/>
<path d="M62.59 29.8069H65.5927C66.1665 29.8069 66.651 29.7372 67.0462 29.5978C67.4415 29.4585 67.824 29.2304 68.1938 28.9136L68.2894 28.9516L67.6009 32.962L67.5052 33C67.3395 32.924 67.1164 32.867 66.8359 32.8289C66.5681 32.7909 66.2557 32.7593 65.8987 32.7339C65.5545 32.7212 65.1783 32.7149 64.7703 32.7149C64.375 32.7149 63.9734 32.7149 63.5654 32.7149H57.2731L57.254 32.6579L62.5518 22.3184H62.0736C61.6529 22.3184 61.2512 22.3247 60.8687 22.3374C60.499 22.35 60.1483 22.388 59.8168 22.4514C59.4853 22.5021 59.1665 22.5908 58.8605 22.7175C58.5673 22.8315 58.2804 23.0026 57.9999 23.2307L57.9043 23.2117L58.5545 19.4104L58.5928 19.1633L58.6884 19.1253C58.8542 19.2013 59.0709 19.2583 59.3387 19.2963C59.6192 19.3343 59.9316 19.366 60.2758 19.3914C60.6328 19.404 61.009 19.4104 61.4042 19.4104C61.8122 19.4104 62.2202 19.4104 62.6283 19.4104H67.8495L67.8686 19.5054L62.59 29.8069Z" fill="#B42318"/>
<path d="M74.3006 29.8069H77.3033C77.8771 29.8069 78.3616 29.7372 78.7568 29.5978C79.1521 29.4585 79.5346 29.2304 79.9044 28.9136L80 28.9516L79.3115 32.962L79.2159 33C79.0501 32.924 78.827 32.867 78.5465 32.8289C78.2787 32.7909 77.9663 32.7593 77.6093 32.7339C77.2651 32.7212 76.8889 32.7149 76.4809 32.7149C76.0857 32.7149 75.684 32.7149 75.276 32.7149H68.9837L68.9646 32.6579L74.2624 22.3184H73.7842C73.3635 22.3184 72.9618 22.3247 72.5793 22.3374C72.2096 22.35 71.8589 22.388 71.5274 22.4514C71.1959 22.5021 70.8772 22.5908 70.5712 22.7175C70.2779 22.8315 69.991 23.0026 69.7105 23.2307L69.6149 23.2117L70.2651 19.4104L70.3034 19.1633L70.399 19.1253C70.5648 19.2013 70.7815 19.2583 71.0493 19.2963C71.3298 19.3343 71.6422 19.366 71.9864 19.3914C72.3434 19.404 72.7196 19.4104 73.1148 19.4104C73.5228 19.4104 73.9309 19.4104 74.3389 19.4104H79.5601L79.5792 19.5054L74.3006 29.8069Z" fill="#B42318"/>
</svg>
